<svg version="1.1" xmlns="http://www.w3.org/2000/svg" xmlns:xlink="http://www.w3.org/1999/xlink" width="901" height="1664"><defs/><g><g/><g/><g/><g/><g/><g/><g/><g/><g/><g/><g/><g/><g/><g/><g/><g/><g/><g/><g/><g/><g/><g/><g/><g/><g/><g/><g/><g/><g/><g><rect fill="white" stroke="none" x="0" y="0" width="901" height="1664"/></g><g/><g><path fill="none" stroke="black" paint-order="fill stroke markers" d=" M 23.054995826464843 94.81957238599999 L 23.054995826464843 1664.0043324659994" stroke-miterlimit="10" stroke-width="1.4659797833333332" stroke-dasharray="13.532121076923076,5.863919133333333"/><path fill="none" stroke="black" paint-order="fill stroke markers" d=" M 259.8732245034831 94.81957238599999 L 259.8732245034831 1664.0043324659994" stroke-miterlimit="10" stroke-width="1.4659797833333332" stroke-dasharray="13.532121076923076,5.863919133333333"/><path fill="none" stroke="black" paint-order="fill stroke markers" d=" M 556.1330883123372 94.81957238599999 L 556.1330883123372 1664.0043324659994" stroke-miterlimit="10" stroke-width="1.4659797833333332" stroke-dasharray="13.532121076923076,5.863919133333333"/><path fill="none" stroke="black" paint-order="fill stroke markers" d=" M 857.2963029512696 94.81957238599999 L 857.2963029512696 1664.0043324659994" stroke-miterlimit="10" stroke-width="1.4659797833333332" stroke-dasharray="13.532121076923076,5.863919133333333"/></g><g><g><path fill="white" stroke="black" paint-order="fill stroke markers" d=" M 33.08229754446484 20.406438583999993 A 10.027301717999999 10.027301717999999 0 1 1 33.0822925308144 20.396411283953203 M 23.054995826464843 30.433740301999993 L 23.054995826464843 51.895684329999995 M 10.388930498464845 38.174113557999995 L 35.72106115446484 38.174113557999995 M 23.054995826464843 51.895684329999995 L 10.388930498464845 71.95028776599999 M 23.054995826464843 51.895684329999995 L 35.72106115446484 71.95028776599999" stroke-miterlimit="10" stroke-width="2.990598758" stroke-dasharray=""/></g><g><g/><text fill="black" stroke="none" font-family="sans-serif" font-size="11pt" font-style="normal" font-weight="normal" text-decoration="normal" x="8.7958787" y="89.542045166" text-anchor="start" dominant-baseline="alphabetic" xml:space="preserve">user</text></g><path fill="none" stroke="none"/><g><path fill="white" stroke="black" paint-order="fill stroke markers" d=" M 231.4196668699909 47.321827406 L 288.3267821369753 47.321827406 L 288.3267821369753 94.81957238599999 L 231.4196668699909 94.81957238599999 L 231.4196668699909 47.321827406 Z" stroke-miterlimit="10" stroke-width="2.814681184" stroke-dasharray=""/></g><g><g/><text fill="black" stroke="none" font-family="sans-serif" font-size="11pt" font-style="normal" font-weight="normal" text-decoration="normal" x="250.50672364899089" y="77.227814986" text-anchor="start" dominant-baseline="alphabetic" xml:space="preserve">FE</text></g><path fill="none" stroke="none"/><g><path fill="white" stroke="black" paint-order="fill stroke markers" d=" M 527.2679401026732 47.321827406 L 584.9982365220013 47.321827406 L 584.9982365220013 94.81957238599999 L 527.2679401026732 94.81957238599999 L 527.2679401026732 47.321827406 Z" stroke-miterlimit="10" stroke-width="2.814681184" stroke-dasharray=""/></g><g><g/><text fill="black" stroke="none" font-family="sans-serif" font-size="11pt" font-style="normal" font-weight="normal" text-decoration="normal" x="546.3549968816732" y="77.227814986" text-anchor="start" dominant-baseline="alphabetic" xml:space="preserve">BE</text></g><g><path fill="white" stroke="black" paint-order="fill stroke markers" d=" M 831.6123371472696 60.33972788199999 L 831.6123371472696 23.397037341999994 L 882.9802687552695 23.397037341999994 L 882.9802687552695 60.33972788199999" stroke-miterlimit="10" stroke-width="2.990598758" stroke-dasharray=""/><path fill="white" stroke="black" paint-order="fill stroke markers" d=" M 882.9802687552695 22.112839051799995 L 882.978984567681 22.228942715556357 L 882.975132133333 22.345034769043096 L 882.9687118374657 22.461103603151603 L 882.9597243221033 22.5771376110952 L 882.94817048599 22.693125189569777 L 882.9340514844997 22.80905473991415 L 882.9173687295208 22.92491466926989 L 882.8981238893149 23.040693391740607 L 882.8763188883499 23.156379329550543 L 882.8519559071079 23.271960914202314 L 882.8250373818667 23.38742658763378 L 882.7955660044562 23.502764803373815 L 882.7635447219897 23.617964027696956 L 882.7289767365687 23.73301274077678 L 882.6918655049631 23.847899437837842 L 882.652214738265 23.962612630306182 L 882.6100284015181 24.077140846958144 L 882.5653107133207 24.191472635067502 L 882.5180661454048 24.305596561550722 L 882.4682994221873 24.41950121411026 L 882.4160155202994 24.533175202375777 L 882.3612196680876 24.646607159043178 L 882.3039173450916 24.75978574101132 L 882.2441142814957 24.872699630516323 L 882.1818164575566 24.98533753626333 L 882.1170301030047 25.09768819455563 L 882.0497616964216 25.209740370421024 L 881.9800179645916 25.321482858735298 L 881.9078058818301 25.43290448534274 L 881.8331326692851 25.543994108173536 L 881.7560057942155 25.65474061835798 L 881.6764329692446 25.76513294133735 L 881.5944221515887 25.875160037971327 L 881.5099815422611 25.984810905641947 L 881.4231195852524 26.094074579353816 L 881.3338449666859 26.202940132830612 L 881.242166613949 26.311396679607718 L 881.1480936948008 26.41943337412082 L 881.0516356164546 26.527039412790515 L 880.9528020246379 26.634204035102595 L 880.8516028026276 26.740916524684135 L 880.7480480702615 26.847166210375107 L 880.6421481829266 26.952942467295482 L 880.5339137305233 27.058234717907713 L 880.4233555364066 27.16303243307448 L 880.310484656304 27.2673251331116 L 880.1953123772092 27.371102388835983 L 880.0778502162543 27.474353822608535 L 879.9581099195575 27.577069109371916 L 879.8361034610487 27.67923797768305 L 879.7118430412719 27.780850210740248 L 879.5853410861656 27.88189564740488 L 879.4566102458201 27.982364183217477 L 879.3256633932119 28.08224577140819 L 879.1925136229173 28.181530423901435 L 879.0571742498024 28.28020821231469 L 878.9196588076916 28.378269268951357 L 878.7799810480144 28.475703787787477 L 878.6381549384307 28.57250202545237 L 878.4941946614331 28.66865430220293 L 878.3481146129293 28.764151002891616 L 878.1999294008024 28.858982577927932 L 878.0496538434502 28.9531395442334 L 877.8973029683032 29.04661248618986 L 877.742892010322 29.13939205658101 L 877.5864364104735 29.231468977527115 L 877.4279518141876 29.322834041412822 L 877.2674540697917 29.413478111807876 L 877.1049592269266 29.503392124380778 L 876.9404835349409 29.592567087805193 L 876.774043441267 29.680994084659094 L 876.6056555897756 29.768664272316485 L 876.4353368191114 29.855568883831655 L 876.2631041610094 29.941699228815878 L 876.0889748385922 30.027046694306424 L 875.9129662646468 30.111602745627874 L 875.7350960398837 30.195358927245554 L 875.5553819511775 30.2783068636111 L 875.3738419697872 30.360438260000002 L 875.1904942495595 30.441744903341053 L 875.0053571251138 30.52221866303769 L 874.8184491100083 30.60185149178099 L 874.6297888948885 30.68063542635445 L 874.4393953456189 30.75856258843026 L 874.2472875013958 30.83562518535715 L 874.0534845728434 30.911815510939647 L 873.8580059400931 30.987125946208693 L 873.6608711508454 31.061548960183508 L 873.4620999184148 31.135077110624714 L 873.2617121197588 31.20770304477855 L 873.0597277934905 31.279419500112116 L 872.8561671378742 31.35021930503964 L 872.6510505088057 31.420095379639633 L 872.4443984177769 31.489040736362863 L 872.236231529825 31.557048480731112 L 872.0265706614651 31.624111812026616 L 871.8154367786093 31.69022402397213 L 871.60285099447 31.75537850540156 L 871.3888345674486 31.819568740921046 L 871.1734088990092 31.882788311560535 L 870.9565955315393 31.94503089541565 L 870.7384161461948 32.00629026827986 L 870.5188925607326 32.06656030426694 L 870.2980467273284 32.125834976423526 L 870.0759007303811 32.18410835733177 L 869.8524767843056 32.24137461970217 L 869.6277972313103 32.29762803695619 L 869.4018845391631 32.352862983798985 L 869.1747612989452 32.40707393678191 L 868.9464502227911 32.46025547485485 L 868.7169741416184 32.51240227990829 L 868.4863560028436 32.56350913730519 L 868.254618868089 32.61357093640241 L 868.0217859108744 32.66258267106174 L 867.7878804143018 32.710539440150576 L 867.5529257687257 32.75743644803197 L 867.3169454694151 32.8032690050442 L 867.0799631142032 32.848032527969764 L 866.8420024011281 32.89172254049368 L 866.6030871260626 32.93433467365111 L 866.3632411803354 32.97586466626422 L 866.1224885483409 33.01630836536839 L 865.880853305142 33.05566172662739 L 865.6383596140613 33.09392081473789 L 865.3950317242661 33.13108180382298 L 865.1508939683425 33.1671409778147 L 864.9059707598627 33.202094730825706 L 864.6602865909434 33.235939567509824 L 864.4138660297967 33.26867210341159 L 864.1667337182735 33.300289065304696 L 863.918914369399 33.330787291519286 L 863.6704327649013 33.36016373225817 L 863.4213137527341 33.38841544990175 L 863.171582244591 33.415539619301796 L 862.9212632134146 33.441533528063985 L 862.6703816908994 33.466394576819084 L 862.4189627649886 33.49012027948296 L 862.1670315773653 33.51270826350509 L 861.9146133209383 33.53415627010592 L 861.6617332373229 33.554462154502644 L 861.4084166143168 33.573623886123755 L 861.1546887833712 33.591639548812054 L 860.9005751170575 33.60850734101629 L 860.6461010265309 33.624225575971295 L 860.3912919589883 33.638792681866676 L 860.136173395124 33.65220720200397 L 859.880770846582 33.66446779494236 L 859.625109853404 33.675573234632765 L 859.3692159814766 33.68552241054046 L 859.1131148199735 33.694314327756146 L 858.8568319787976 33.70194810709544 L 858.6003930860193 33.708422985186765 L 858.3438237853144 33.713738314547705 L 858.0871497333989 33.71789356364975 L 857.8303965974643 33.72088831697146 L 857.57359005261 33.72272227503999 L 857.3167557792768 33.723395254461074 L 857.0599194606779 33.722907187937324 L 856.8031067802309 33.721258124274975 L 856.5463434189901 33.71844822837903 L 856.2896550530776 33.714477781236745 L 856.033067351116 33.70934717988951 L 855.7766059716616 33.70305693739319 L 855.5202965606389 33.6956076827668 L 855.2641647487753 33.687000160929585 L 855.0082361490385 33.67723523262656 L 854.7525363540751 33.66631387434241 L 854.4970909336516 33.65423717820387 L 854.2419254320973 33.6410063518705 L 853.9870653657496 33.62662271841389 L 853.7325362204027 33.61108771618541 L 853.4783634487592 33.59440289867233 L 853.2245724678843 33.5765699343425 L 852.9711886566646 33.55759060647749 L 852.7182373532701 33.53746681299428 L 852.4657438526204 33.516200566255435 L 852.2137334038551 33.49379399286792 L 851.962231207809 33.4702493334704 L 851.7112624144924 33.44556894250918 L 851.4608521205752 33.419755288002804 L 851.2110253668781 33.3928109512952 L 850.9618071358685 33.3647386267976 L 850.7132223491617 33.335541121719054 L 850.4652958650291 33.30522135578573 L 850.2180524759128 33.273782360948964 L 849.9715169059455 33.24122728108204 L 849.7257138084788 33.20755937166581 L 849.4806677636175 33.17278199946317 L 849.2364032757619 33.136898642182345 L 848.9929447711573 33.09991288812917 L 848.7503165954514 33.06182843584822 L 848.5085430112593 33.022649093753 L 848.2676481957382 32.98237877974506 L 848.0276562381688 32.94102152082225 L 847.7885911375467 32.898581452675984 L 847.5504768001831 32.85506281927773 L 847.3133370373131 32.81046997245454 L 847.0771955627154 32.764807371453955 L 846.8420759903405 32.718079582498014 L 846.60800183195 32.67029127832667 L 846.3749964947644 32.62144723773053 L 846.1430832791236 32.57155234507294 L 845.9122853761555 32.52061158980158 L 845.6826258654585 32.46863006594954 L 845.4541277127919 32.41561297162588 L 845.2268137677806 32.36156560849586 L 845.0007067616299 32.30649338125074 L 844.7758293048519 32.25040179706736 L 844.5522038850048 32.1932964650574 L 844.3298528644442 32.13518309570646 L 844.1087984780871 32.07606750030306 L 843.8890628311876 32.01595559035747 L 843.6706678971276 31.954853377010593 L 843.4536355152183 31.89276697043285 L 843.237987388517 31.829702579213155 L 843.0237450816569 31.765666509738075 L 842.81093001869 31.700665165561198 L 842.5995634809451 31.634705046762775 L 842.3896666049001 31.56779274929972 L 842.1812603800676 31.49993496434601 L 841.9743656468963 31.431138477623605 L 841.7690030946873 31.361410168723843 L 841.5651932595244 31.290757010419505 L 841.3629565222217 31.21918606796754 L 841.162313106284 31.146704498402556 L 840.9632830758859 31.073319549821107 L 840.7658863338646 30.999038560656903 L 840.5701426197296 30.923868958946954 L 840.3760715076895 30.847818261588788 L 840.1836924046935 30.77089407358877 L 839.9930245484917 30.693104087301595 L 839.8040870057109 30.614456081661068 L 839.6168986699478 30.53495792140221 L 839.43147825988 30.454617556274798 L 839.2478443173941 30.373443020248402 L 839.0660152057312 30.291442430708976 L 838.886009107651 30.208623987647137 L 838.7078440236135 30.124995972838178 L 838.5315377699782 30.04056674901389 L 838.3571079772239 29.955344759026296 L 838.1845720881843 29.869338525003386 L 838.0139473563047 29.78255664749688 L 837.845250843916 29.695007804622215 L 837.6784994205289 29.606700751190715 L 837.5137097611466 29.517644317834147 L 837.350898344598 29.427847410121625 L 837.190081451889 29.337319007669088 L 837.0312751645747 29.246068163241347 L 836.8744953631517 29.154104001846797 L 836.7197577254693 29.061435719824946 L 836.5670777251626 28.96807258392677 L 836.416470630104 28.874023930388056 L 836.2679515008779 28.779299163995788 L 836.1215351892731 28.683907757147658 L 835.977236336799 28.587859248904874 L 835.8350693732204 28.49116324403821 L 835.6950485151154 28.39382941206757 L 835.5571877644531 28.295867486295048 L 835.4215009071936 28.19728726283158 L 835.2880015119096 28.09809859961737 L 835.1567029284291 27.998311415436074 L 835.0276182865015 27.897935688922963 L 834.9007604944832 27.796981457567032 L 834.7761422380476 27.695458816707298 L 834.6537759789167 27.593377918523238 L 834.5336739536142 27.49074897101961 L 834.4158481722427 27.387582237005635 L 834.3003104172822 27.28388803306874 L 834.1870722424117 27.179676728542915 L 834.0761449713546 27.07495874447177 L 833.9675396967452 26.96974455256644 L 833.8612672790209 26.86404467415844 L 833.7573383453346 26.75786967914753 L 833.6557632884932 26.65123018494473 L 833.5565522659177 26.5441368554106 L 833.4597151986276 26.436600399788837 L 833.365261770249 26.328631571635405 L 833.2732014260462 26.220241167743136 L 833.1835433719766 26.111440027062095 L 833.096296573771 26.002239029615684 L 833.0114697560367 25.89264909541265 L 832.9290714013845 25.782681183355084 L 832.8491097495813 25.672346290142553 L 832.7715927967258 25.561655449172438 L 832.6965282944485 25.450619729436585 L 832.6239237491371 25.339250234414447 L 832.5537864211858 25.22755810096271 L 832.4861233242686 25.11555449820165 L 832.4209412246393 25.003250626398206 L 832.358246640453 24.89065771584597 L 832.2980458411163 24.777787025742168 L 832.2403448466587 24.664649843061756 L 832.1851494271317 24.55125748142872 L 832.1324651020312 24.43762127998473 L 832.082297139746 24.323752602255233 L 832.0346505570301 24.209662835013113 L 831.9895301185024 24.095363387140015 L 831.9469403361692 23.980865688485487 L 831.906885468973 23.86618118872397 L 831.8693695223673 23.751321356209875 L 831.8343962479154 23.636297676830736 L 831.8019691429156 23.521121652858643 L 831.7720914500514 23.405804801800002 L 831.7447661570674 23.290358655243836 L 831.7199959964698 23.174794757708582 L 831.6977834452542 23.0591246654877 L 831.6781307246572 22.94335994549402 L 831.6610397999345 22.827512174103067 L 831.6465123801643 22.711592935995444 L 831.6345499180763 22.59561382299836 L 831.625153609907 22.479586432926467 L 831.6183243952793 22.363522368422085 L 831.6140629571089 22.24743323579494 L 831.6123697215361 22.13133064386156 L 831.613244857883 22.015226202784383 L 831.616688278637 21.89913152291076 L 831.6226996394585 21.78305821361194 L 831.6312783392166 21.667017882122124 L 831.6424235200484 21.551022132377756 L 831.6561340674452 21.435082563857154 L 831.6724086103637 21.31921077042055 L 831.6912455213632 21.20341833915073 L 831.712642916768 21.087716849194326 L 831.7365986568567 20.972117870603913 L 831.7631103460752 20.856632963181028 L 831.7921753332765 20.741273675320166 L 831.8237907119864 20.626051542853986 L 831.8579533206931 20.510978087899716 L 831.8946597431643 20.396064817706954 L 831.9339063087884 20.281323223506963 L 831.9756890929415 20.166764779363543 L 832.0200039173799 20.052400941025642 L 832.0668463506582 19.938243144781794 L 832.1162117085721 19.82430280631649 L 832.168095054627 19.71059131956863 L 832.2224912005314 19.59712005559212 L 832.2793947067161 19.48390036141881 L 832.3387998828779 19.370943558923763 L 832.4007007885488 19.2582609436931 L 832.4650912336895 19.145863783894434 L 832.5319647793094 19.033763319150093 L 832.6013147381097 18.921970759413128 L 832.6731341751522 18.810497283846352 L 832.7474159085531 18.69935403970443 L 832.8241525102009 18.588552141219157 L 832.9033363064995 18.478102668488045 L 832.984959379135 18.36801666636633 L 833.0690135658684 18.25830514336248 L 833.1554904613511 18.148979070537376 L 833.2443814179654 18.04004938040719 L 833.3356775466898 17.931526965850164 L 833.4293697179876 17.823422679017316 L 833.5254485627197 17.715747330247247 L 833.6239044730817 17.608511686985103 L 833.7247276035645 17.501726472705844 L 833.8279078719393 17.395402365841917 L 833.9334349602649 17.289549998715398 L 834.0412983159207 17.184179956474793 L 834.1514871526609 17.07930277603652 L 834.2639904516938 16.974928945031227 L 834.378796962783 16.871068900755027 L 834.4958952053732 16.767733029125807 L 834.6152734697379 16.664931663644616 L 834.7369198181498 16.562675084362333 L 834.8608220860755 16.46097351685167 L 834.9869678833917 16.359837131184634 L 835.1153445956236 16.259276040915502 L 835.245939385207 16.159300302069507 L 835.3787391927716 16.059919912137218 L 835.5137307384476 15.961144809074815 L 835.6509005231928 15.862984870310289 L 835.7902348301432 15.765449911755718 L 835.9317197259838 15.668549686825678 L 836.0753410623433 15.57229388546191 L 836.2210844772076 15.476692133164342 L 836.3689353963566 15.381753990028534 L 836.5188790348218 15.287488949789683 L 836.6709003983641 15.193906438873261 L 836.8249842849739 15.101015815452374 L 836.981115286391 15.008826368511954 L 837.1392777896453 14.917347316919871 L 837.2994559786183 14.826587808505055 L 837.4616338356246 14.73655691914271 L 837.6257951430136 14.647263651846753 L 837.7919234847914 14.558716935869498 L 837.9600022482623 14.470925625808754 L 838.1300146256899 14.38389850072237 L 838.3019436159782 14.29764426325033 L 838.4757720263715 14.212171538744506 L 838.6514824741736 14.12748887440612 L 838.829057388486 14.043604738431036 L 839.0084790119654 13.96052751916295 L 839.189729402599 13.878265524254557 L 839.3727904354986 13.796826979836796 L 839.5576438047136 13.716220029696245 L 839.7442710250612 13.636452734460747 L 839.9326534339747 13.55753307079335 L 840.1227721933702 13.479468930594656 L 840.3146082915304 13.402268120213629 L 840.5081425450051 13.325938359666978 L 840.7033556005304 13.250487281867144 L 840.9002279369632 13.175922431859037 L 841.0987398672343 13.102251266065519 L 841.2988715403158 13.029481151541777 L 841.5006029432071 12.95761936523862 L 841.7039139029364 12.886673093274794 L 841.9087840885768 12.816649430218376 L 842.1151930132805 12.747555378377317 L 842.3231200363273 12.679397847099223 L 842.5325443651878 12.612183652080423 L 842.7434450576039 12.54591951468441 L 842.9558010236822 12.480612061269703 L 843.1695910280026 12.416267822527217 L 843.3847936917433 12.352893232827212 L 843.601387494817 12.290494629575843 L 843.8193507780239 12.229078252581434 L 844.0386617452174 12.16865024343051 L 844.2592984654835 12.109216644873625 L 844.4812388753342 12.050783400221109 L 844.7044607809131 11.993356352748732 L 844.9289418602159 11.936941245113385 L 845.1546596653218 11.881543718778822 L 845.3815916246382 11.827169313451508 L 845.6097150451584 11.773823466526666 L 845.8390071147305 11.721511512544536 L 846.0694449043384 11.670238682656919 L 846.3010053703954 11.620010104104079 L 846.5336653570478 11.570830799702014 L 846.7674015984907 11.52270568734018 L 847.0021907212948 11.47563957948971 L 847.2380092467437 11.429637182722168 L 847.474833593181 11.384703097238896 L 847.7126400783695 11.340841816410997 L 847.9514049218591 11.29805772633 L 848.1911042473643 11.256355105369265 L 848.4317140851521 11.21573812375613 L 848.6732103744393 11.176210843154916 L 848.9155689657985 11.137777216260737 L 849.1587656235722 11.10044108640426 L 849.4027760282975 11.064206187167352 L 849.6475757791371 11.029076142009746 L 849.8931403963201 10.99505446390668 L 850.1394453235891 10.962144554997614 L 850.3864659306571 10.930349706246012 L 850.6341775156689 10.899673097110258 L 850.8825553076724 10.870117795225697 L 851.1315744690955 10.841686756097891 L 851.3812100982296 10.81438282280706 L 851.6314372317198 10.788208725723779 L 851.8822308470614 10.763167082235944 L 852.1335658651014 10.739260396487039 L 852.3854171525479 10.716491059125712 L 852.6377595244819 10.69486134706673 L 852.8905677468765 10.67437342326327 L 853.14381653912 10.655029336490642 L 853.3974805765445 10.6368310211414 L 853.6515344929574 10.619780297031918 L 853.9059528831787 10.603878869220395 L 854.1607103055816 10.589128327836361 L 854.4157812846361 10.575530147921663 L 854.6711403134568 10.56308568928296 L 854.9267618563537 10.551796196355749 L 855.1826203513855 10.54166279807991 L 855.4386902129158 10.53268650778683 L 855.694945834172 10.524868223098053 L 855.9513615898054 10.518208725835539 L 856.2079118384543 10.51270868194346 L 856.4645709253074 10.508368641421624 L 856.72131318467 10.505189038270467 L 856.97811294253 10.503170190447653 L 857.2349445191257 10.502312299836282 L 857.4917822315136 10.5026154522247 L 857.7486003961365 10.504079617297922 L 858.0053733313916 10.50670464864066 L 858.2620753601997 10.510490283751968 L 858.5186808125717 10.51543614407149 L 858.7751640281762 10.521541735017312 L 859.0314993589053 10.528806446035432 L 859.2876611714397 10.5372295506608 L 859.5436238498116 10.54681020658997 L 859.7993617979664 10.55754745576534 L 860.0548494423223 10.569440224470933 L 860.3100612343279 10.582487323439793 L 860.5649716530168 10.596687447972894 L 860.8195552075592 10.612039178069617 L 861.0737864398121 10.628540978569744 L 861.3276399268641 10.646191199306978 L 861.581090283578 10.664988075273955 L 861.8341121651291 10.684929726798739 L 862.0866802695405 10.706014159732797 L 862.338769340212 10.728239265650407 L 862.5903541684467 10.751602822059496 L 862.8414095959712 10.776102492623894 L 863.0919105174522 10.80173582739696 L 863.3418318830063 10.828500263066578 L 863.5911487007052 10.856393123211486 L 863.8398360390747 10.885411618568913 L 864.0878690295884 10.915552847313505 L 864.335222869154 10.946813795347502 L 864.5818728225935 10.979191336602156 L 864.827794225117 11.012682233350322 L 865.0729624847895 11.04728313653023 L 865.3173530849892 11.082990586080403 L 865.5609415868596 11.119801011285636 L 865.8037036317537 11.157710731134086 L 866.0456149436692 11.19671595468536 L 866.2866513316765 11.236812781449604 L 866.5267886923377 11.277997201777561 L 866.7660030121169 11.320265097261514 L 867.0042703697814 11.36361224114714 L 867.2415669387939 11.40803429875617 L 867.4778689896954 11.453526827919866 L 867.7131528924776 11.500085279423217 L 867.9473951189465 11.547704997459876 L 868.1805722450745 11.59638122009772 L 868.4126609533432 11.646109079755048 L 868.6436380350754 11.696883603687334 L 868.8734803927551 11.748699714484497 L 869.1021650423385 11.801552230578638 L 869.3296691155508 11.855435866762189 L 869.5559698621746 11.91034523471644 L 869.7810446523235 11.966274843550346 L 870.0048709787064 12.023219100349637 L 870.227426458877 12.081172310736083 L 870.4486888374726 12.140128679436941 L 870.6686359884399 12.200082310864472 L 870.887245917247 12.261027209705492 L 871.1044967630834 12.322957281520907 L 871.3203668010452 12.385866333355143 L 871.5348344443089 12.449748074355437 L 871.7478782462886 12.514596116400929 L 871.9594769027817 12.580403974741452 L 872.1696092540991 12.64716506864601 L 872.3782542871804 12.714872722060848 L 872.5853911376964 12.783520164277046 L 872.7909990921347 12.853100530607593 L 872.9950575898711 12.923606863073834 L 873.1975462252259 12.995032111101281 L 873.3984447495043 13.067369132224648 L 873.5977330730212 13.14061069280211 L 873.7953912671105 13.214749468738637 L 873.9913995661174 13.289778046218421 L 874.1857383693753 13.365688922446235 L 874.3783882431659 13.44247450639772 L 874.5693299226623 13.520127119578463 L 874.7585443138557 13.598638996791859 L 874.9460124954646 13.678002286915614 L 875.1317157208273 13.75820905368685 L 875.3156354197757 13.839251276495729 L 875.4977532004934 13.921120851187503 L 875.678050851354 14.003809590872931 L 875.8565103427426 14.08730922674695 L 876.0331138288589 14.171611408915552 L 876.2078436495012 14.256707707230778 L 876.3806823318334 14.342589612133706 L 876.5516125921313 14.429248535505412 L 876.7206173375109 14.51667581152578 L 876.8876796676388 14.604862697540057 L 877.0527828764212 14.693800374933137 L 877.2159104536748 14.78347995001139 L 877.3770460867778 14.873892454892044 L 877.536173662301 14.965028848399953 L 877.6932772676198 15.056880016971714 L 877.8483411925042 15.149436775567011 L 878.0013499306913 15.242689868587114 L 878.1522881814344 15.336629970800434 L 878.3011408510346 15.431247688275032 L 878.4478930543487 15.52653355931801 L 878.5925301162787 15.622478055421665 L 878.7350375732391 15.71907158221634 L 878.8754011746028 15.816304480429855 L 879.0136068841267 15.91416702685341 L 879.149640881355 16.012649435313918 L 879.2834895630014 16.111741857652596 L 879.4151395443091 16.211434384709797 L 879.5445776603899 16.311717047315884 L 879.67179096754 16.412579817288165 L 879.7967667445346 16.5140126084337 L 879.9194924939002 16.616005277557896 L 880.039955943164 16.71854762547884 L 880.1581450460818 16.821629398047186 L 880.2740479838415 16.92524028717158 L 880.387653166246 17.029369931849452 L 880.4989492328717 17.13400791920311 L 880.6079250542048 17.239143785521016 L 880.7145697327538 17.34476701730415 L 880.8188726041399 17.450867052317356 L 880.9208232381627 17.557433280645544 L 881.0204114398439 17.664455045754686 L 881.1176272504462 17.771921645557462 L 881.2124609484697 17.879822333483443 L 881.3049030506235 17.988146319553753 L 881.3949443127744 18.096882771460052 L 881.4825757308714 18.20602081564777 L 881.5677885418456 18.31554953840343 L 881.6505742244868 18.425457986946036 L 881.7309245002959 18.535735170522315 L 881.8088313343122 18.646370061505813 L 881.8842869359173 18.75735159649963 L 881.9572837596138 18.86866867744274 L 882.0278145057803 18.980310172719825 L 882.0958721214008 19.09226491827438 L 882.1614498007705 19.204521718725157 L 882.2245409861762 19.31706934848565 L 882.2851393685518 19.429896552886674 L 882.3432388881097 19.54299204930181 L 882.3988337349463 19.656344528275664 L 882.4519183496232 19.7699426546548 L 882.5024874237231 19.883775068721242 L 882.550535900381 19.997830387328445 L 882.596058974789 20.112097205039596 L 882.6390520946778 20.22656409526814 L 882.6795109607712 20.34121961142045 L 882.7174315272161 20.45605228804045 L 882.7528100019877 20.571050641956177 L 882.7856428472679 20.68620317342807 L 882.8159267797995 20.80149836729894 L 882.8436587712146 20.91692469414548 L 882.868836048337 21.03247061143119 L 882.8914560934602 21.148124564660638 L 882.9115166445982 21.26387498853487 L 882.929015695713 21.379710308107963 L 882.9439514969139 21.495618939944485 L 882.9563225546331 21.611589293277845 L 882.9661276317753 21.72760977116935 L 882.9733657478408 21.843668771667897 L 882.9780361790242 21.959754688970147 L 882.9801384582862 22.075855914581112 M 882.9802687552695 59.05552959179999 L 882.978984567681 59.17163325555635 L 882.975132133333 59.28772530904309 L 882.9687118374657 59.4037941431516 L 882.9597243221033 59.51982815109519 L 882.94817048599 59.63581572956977 L 882.9340514844997 59.75174527991415 L 882.9173687295208 59.86760520926988 L 882.8981238893149 59.983383931740605 L 882.8763188883499 60.09906986955053 L 882.8519559071079 60.21465145420231 L 882.8250373818667 60.33011712763378 L 882.7955660044562 60.44545534337381 L 882.7635447219897 60.56065456769695 L 882.7289767365687 60.67570328077677 L 882.6918655049631 60.79058997783784 L 882.652214738265 60.905303170306176 L 882.6100284015181 61.01983138695814 L 882.5653107133207 61.1341631750675 L 882.5180661454048 61.248287101550716 L 882.4682994221873 61.362191754110256 L 882.4160155202994 61.475865742375774 L 882.3612196680876 61.58929769904317 L 882.3039173450916 61.702476281011315 L 882.2441142814957 61.81539017051632 L 882.1818164575566 61.928028076263324 L 882.1170301030047 62.040378734555624 L 882.0497616964216 62.15243091042102 L 881.9800179645916 62.26417339873529 L 881.9078058818301 62.37559502534273 L 881.8331326692851 62.48668464817353 L 881.7560057942155 62.59743115835798 L 881.6764329692446 62.70782348133734 L 881.5944221515887 62.81785057797132 L 881.5099815422611 62.927501445641944 L 881.4231195852524 63.03676511935381 L 881.3338449666859 63.145630672830606 L 881.242166613949 63.25408721960771 L 881.1480936948008 63.362123914120815 L 881.0516356164546 63.46972995279051 L 880.9528020246379 63.576894575102585 L 880.8516028026276 63.68360706468413 L 880.7480480702615 63.7898567503751 L 880.6421481829266 63.89563300729547 L 880.5339137305233 64.00092525790771 L 880.4233555364066 64.10572297307448 L 880.310484656304 64.2100156731116 L 880.1953123772092 64.31379292883598 L 880.0778502162543 64.41704436260852 L 879.9581099195575 64.5197596493719 L 879.8361034610487 64.62192851768305 L 879.7118430412719 64.72354075074024 L 879.5853410861656 64.82458618740488 L 879.4566102458201 64.92505472321747 L 879.3256633932119 65.02493631140818 L 879.1925136229173 65.12422096390142 L 879.0571742498024 65.22289875231468 L 878.9196588076916 65.32095980895134 L 878.7799810480144 65.41839432778747 L 878.6381549384307 65.51519256545237 L 878.4941946614331 65.61134484220293 L 878.3481146129293 65.70684154289161 L 878.1999294008024 65.80167311792792 L 878.0496538434502 65.8958300842334 L 877.8973029683032 65.98930302618986 L 877.742892010322 66.082082596581 L 877.5864364104735 66.1741595175271 L 877.4279518141876 66.26552458141282 L 877.2674540697917 66.35616865180788 L 877.1049592269266 66.44608266438077 L 876.9404835349409 66.53525762780518 L 876.774043441267 66.62368462465909 L 876.6056555897756 66.71135481231647 L 876.4353368191114 66.79825942383165 L 876.2631041610094 66.88438976881586 L 876.0889748385922 66.96973723430642 L 875.9129662646468 67.05429328562786 L 875.7350960398837 67.13804946724555 L 875.5553819511775 67.2209974036111 L 875.3738419697872 67.3031288 L 875.1904942495595 67.38443544334105 L 875.0053571251138 67.46490920303768 L 874.8184491100083 67.54454203178099 L 874.6297888948885 67.62332596635444 L 874.4393953456189 67.70125312843025 L 874.2472875013958 67.77831572535715 L 874.0534845728434 67.85450605093965 L 873.8580059400931 67.92981648620868 L 873.6608711508454 68.0042395001835 L 873.4620999184148 68.07776765062471 L 873.2617121197588 68.15039358477854 L 873.0597277934905 68.22211004011211 L 872.8561671378742 68.29290984503963 L 872.6510505088057 68.36278591963963 L 872.4443984177769 68.43173127636285 L 872.236231529825 68.49973902073111 L 872.0265706614651 68.56680235202661 L 871.8154367786093 68.63291456397212 L 871.60285099447 68.69806904540155 L 871.3888345674486 68.76225928092104 L 871.1734088990092 68.82547885156053 L 870.9565955315393 68.88772143541564 L 870.7384161461948 68.94898080827986 L 870.5188925607326 69.00925084426694 L 870.2980467273284 69.06852551642352 L 870.0759007303811 69.12679889733177 L 869.8524767843056 69.18406515970216 L 869.6277972313103 69.24031857695618 L 869.4018845391631 69.29555352379899 L 869.1747612989452 69.34976447678191 L 868.9464502227911 69.40294601485483 L 868.7169741416184 69.45509281990827 L 868.4863560028436 69.50619967730518 L 868.254618868089 69.5562614764024 L 868.0217859108744 69.60527321106174 L 867.7878804143018 69.65322998015057 L 867.5529257687257 69.70012698803195 L 867.3169454694151 69.74595954504419 L 867.0799631142032 69.79072306796976 L 866.8420024011281 69.83441308049368 L 866.6030871260626 69.8770252136511 L 866.3632411803354 69.91855520626422 L 866.1224885483409 69.95899890536838 L 865.880853305142 69.99835226662738 L 865.6383596140613 70.03661135473789 L 865.3950317242661 70.07377234382297 L 865.1508939683425 70.1098315178147 L 864.9059707598627 70.1447852708257 L 864.6602865909434 70.17863010750982 L 864.4138660297967 70.21136264341158 L 864.1667337182735 70.24297960530468 L 863.918914369399 70.27347783151929 L 863.6704327649013 70.30285427225817 L 863.4213137527341 70.33110598990174 L 863.171582244591 70.3582301593018 L 862.9212632134146 70.38422406806397 L 862.6703816908994 70.40908511681909 L 862.4189627649886 70.43281081948295 L 862.1670315773653 70.45539880350509 L 861.9146133209383 70.47684681010591 L 861.6617332373229 70.49715269450263 L 861.4084166143168 70.51631442612376 L 861.1546887833712 70.53433008881206 L 860.9005751170575 70.5511978810163 L 860.6461010265309 70.56691611597128 L 860.3912919589883 70.58148322186666 L 860.136173395124 70.59489774200397 L 859.880770846582 70.60715833494235 L 859.625109853404 70.61826377463275 L 859.3692159814766 70.62821295054044 L 859.1131148199735 70.63700486775615 L 858.8568319787976 70.64463864709543 L 858.6003930860193 70.65111352518676 L 858.3438237853144 70.6564288545477 L 858.0871497333989 70.66058410364974 L 857.8303965974643 70.66357885697145 L 857.57359005261 70.66541281503999 L 857.3167557792768 70.66608579446107 L 857.0599194606779 70.66559772793731 L 856.8031067802309 70.66394866427497 L 856.5463434189901 70.66113876837903 L 856.2896550530776 70.65716832123674 L 856.033067351116 70.6520377198895 L 855.7766059716616 70.64574747739319 L 855.5202965606389 70.63829822276679 L 855.2641647487753 70.62969070092957 L 855.0082361490385 70.61992577262654 L 854.7525363540751 70.60900441434241 L 854.4970909336516 70.59692771820387 L 854.2419254320973 70.58369689187049 L 853.9870653657496 70.56931325841389 L 853.7325362204027 70.5537782561854 L 853.4783634487592 70.53709343867231 L 853.2245724678843 70.51926047434249 L 852.9711886566646 70.50028114647749 L 852.7182373532701 70.48015735299427 L 852.4657438526204 70.45889110625544 L 852.2137334038551 70.43648453286792 L 851.962231207809 70.41293987347039 L 851.7112624144924 70.38825948250917 L 851.4608521205752 70.36244582800279 L 851.2110253668781 70.3355014912952 L 850.9618071358685 70.3074291667976 L 850.7132223491617 70.27823166171905 L 850.4652958650291 70.24791189578572 L 850.2180524759128 70.21647290094896 L 849.9715169059455 70.18391782108203 L 849.7257138084788 70.15024991166581 L 849.4806677636175 70.11547253946316 L 849.2364032757619 70.07958918218233 L 848.9929447711573 70.04260342812915 L 848.7503165954514 70.00451897584821 L 848.5085430112593 69.96533963375299 L 848.2676481957382 69.92506931974506 L 848.0276562381688 69.88371206082223 L 847.7885911375467 69.84127199267598 L 847.5504768001831 69.79775335927772 L 847.3133370373131 69.75316051245454 L 847.0771955627154 69.70749791145394 L 846.8420759903405 69.66077012249801 L 846.60800183195 69.61298181832667 L 846.3749964947644 69.56413777773052 L 846.1430832791236 69.51424288507293 L 845.9122853761555 69.46330212980158 L 845.6826258654585 69.41132060594953 L 845.4541277127919 69.35830351162588 L 845.2268137677806 69.30425614849585 L 845.0007067616299 69.24918392125073 L 844.7758293048519 69.19309233706736 L 844.5522038850048 69.13598700505739 L 844.3298528644442 69.07787363570645 L 844.1087984780871 69.01875804030306 L 843.8890628311876 68.95864613035747 L 843.6706678971276 68.89754391701058 L 843.4536355152183 68.83545751043285 L 843.237987388517 68.77239311921315 L 843.0237450816569 68.70835704973807 L 842.81093001869 68.64335570556119 L 842.5995634809451 68.57739558676278 L 842.3896666049001 68.51048328929971 L 842.1812603800676 68.44262550434601 L 841.9743656468963 68.3738290176236 L 841.7690030946873 68.30410070872384 L 841.5651932595244 68.2334475504195 L 841.3629565222217 68.16187660796753 L 841.162313106284 68.08939503840256 L 840.9632830758859 68.01601008982111 L 840.7658863338646 67.9417291006569 L 840.5701426197296 67.86655949894694 L 840.3760715076895 67.79050880158879 L 840.1836924046935 67.71358461358876 L 839.9930245484917 67.63579462730159 L 839.8040870057109 67.55714662166106 L 839.6168986699478 67.4776484614022 L 839.43147825988 67.3973080962748 L 839.2478443173941 67.3161335602484 L 839.0660152057312 67.23413297070897 L 838.886009107651 67.15131452764713 L 838.7078440236135 67.06768651283818 L 838.5315377699782 66.98325728901388 L 838.3571079772239 66.89803529902629 L 838.1845720881843 66.81202906500337 L 838.0139473563047 66.72524718749688 L 837.845250843916 66.63769834462221 L 837.6784994205289 66.54939129119072 L 837.5137097611466 66.46033485783414 L 837.350898344598 66.37053795012162 L 837.190081451889 66.28000954766908 L 837.0312751645747 66.18875870324135 L 836.8744953631517 66.09679454184679 L 836.7197577254693 66.00412625982494 L 836.5670777251626 65.91076312392677 L 836.416470630104 65.81671447038805 L 836.2679515008779 65.72198970399577 L 836.1215351892731 65.62659829714765 L 835.977236336799 65.53054978890486 L 835.8350693732204 65.4338537840382 L 835.6950485151154 65.33651995206756 L 835.5571877644531 65.23855802629504 L 835.4215009071936 65.13997780283158 L 835.2880015119096 65.04078913961736 L 835.1567029284291 64.94100195543606 L 835.0276182865015 64.84062622892296 L 834.9007604944832 64.73967199756703 L 834.7761422380476 64.63814935670729 L 834.6537759789167 64.53606845852323 L 834.5336739536142 64.4334395110196 L 834.4158481722427 64.33027277700563 L 834.3003104172822 64.22657857306874 L 834.1870722424117 64.12236726854292 L 834.0761449713546 64.01764928447176 L 833.9675396967452 63.91243509256643 L 833.8612672790209 63.80673521415844 L 833.7573383453346 63.70056021914752 L 833.6557632884932 63.593920724944724 L 833.5565522659177 63.48682739541059 L 833.4597151986276 63.37929093978883 L 833.365261770249 63.2713221116354 L 833.2732014260462 63.16293170774313 L 833.1835433719766 63.05413056706209 L 833.096296573771 62.94492956961568 L 833.0114697560367 62.835339635412645 L 832.9290714013845 62.725371723355074 L 832.8491097495813 62.61503683014255 L 832.7715927967258 62.50434598917243 L 832.6965282944485 62.393310269436576 L 832.6239237491371 62.28194077441444 L 832.5537864211858 62.170248640962704 L 832.4861233242686 62.05824503820165 L 832.4209412246393 61.9459411663982 L 832.358246640453 61.83334825584596 L 832.2980458411163 61.720477565742165 L 832.2403448466587 61.60734038306175 L 832.1851494271317 61.493948021428714 L 832.1324651020312 61.380311819984726 L 832.082297139746 61.26644314225523 L 832.0346505570301 61.15235337501311 L 831.9895301185024 61.03805392714001 L 831.9469403361692 60.92355622848548 L 831.906885468973 60.808871728723965 L 831.8693695223673 60.69401189620987 L 831.8343962479154 60.57898821683073 L 831.8019691429156 60.46381219285863 L 831.7720914500514 60.348495341799996 L 831.7447661570674 60.23304919524383 L 831.7199959964698 60.117485297708576 L 831.6977834452542 60.001815205487695 L 831.6781307246572 59.88605048549402 L 831.6610397999345 59.770202714103064 L 831.6465123801643 59.654283475995435 L 831.6345499180763 59.53830436299835 L 831.625153609907 59.42227697292646 L 831.6183243952793 59.306212908422076 L 831.6140629571089 59.19012377579494 L 831.6123697215361 59.074021183861554" stroke-miterlimit="10" stroke-width="2.990598758" stroke-dasharray=""/></g><g><g/><text fill="black" stroke="none" font-family="sans-serif" font-size="11pt" font-style="normal" font-weight="normal" text-decoration="normal" x="847.1137696871094" y="89.542045166" text-anchor="start" dominant-baseline="alphabetic" xml:space="preserve">DB</text></g></g><g><path fill="none" stroke="black" paint-order="fill stroke markers" d=" M 8.7958787 144.36968906266668 L 892.2041213 144.36968906266668 M 8.7958787 150.233608196 L 892.2041213 150.233608196 M 8.7958787 156.09752732933333 L 892.2041213 156.09752732933333" stroke-miterlimit="10" stroke-width="1.4659797833333332" stroke-dasharray=""/><path fill="white" stroke="black" paint-order="fill stroke markers" d=" M 410.38479189830076 130.00308718600002 L 490.6152081016992 130.00308718600002 L 490.6152081016992 170.464129206 L 410.38479189830076 170.464129206 Z" stroke-miterlimit="10" stroke-width="1.4659797833333332" stroke-dasharray=""/><g><text fill="black" stroke="none" font-family="sans-serif" font-size="11pt" font-style="normal" font-weight="normal" text-decoration="normal" x="435.0132522583008" y="154.63154754600004" text-anchor="start" dominant-baseline="alphabetic" xml:space="preserve">login</text></g><g><g><rect fill="white" stroke="none" x="89.12241991923177" y="196.85176530599998" width="104.68338049148437" height="22.86928462"/></g><text fill="black" stroke="none" font-family="sans-serif" font-size="11pt" font-style="normal" font-weight="normal" text-decoration="normal" x="91.76118352923177" y="212.684346966" text-anchor="start" dominant-baseline="alphabetic" xml:space="preserve">Opens ClosetU</text></g><g><path fill="none" stroke="black" paint-order="fill stroke markers" d=" M 23.054995826464843 219.72104992599998 L 256.9412649368164 219.72104992599998" stroke-miterlimit="10" stroke-width="1.4659797833333332" stroke-dasharray=""/><g transform="translate(259.8732245034831,219.72104992599998) translate(-259.8732245034831,-219.72104992599998)"><path fill="black" stroke="none" paint-order="stroke fill markers" d=" M 245.21342667014974 212.3911510093333 L 259.8732245034831 219.72104992599998 L 245.21342667014974 227.05094884266666 Z"/></g></g><g><g><rect fill="white" stroke="none" x="308.8039451050391" y="246.10868602599996" width="198.39842260574218" height="22.86928462"/></g><text fill="black" stroke="none" font-family="sans-serif" font-size="11pt" font-style="normal" font-weight="normal" text-decoration="normal" x="311.4427087150391" y="261.94126768599995" text-anchor="start" dominant-baseline="alphabetic" xml:space="preserve">Request to submit credentials</text></g><g><path fill="none" stroke="black" paint-order="fill stroke markers" d=" M 259.8732245034831 268.97797064599996 L 553.2011287456705 268.97797064599996" stroke-miterlimit="10" stroke-width="1.4659797833333332" stroke-dasharray=""/><g transform="translate(556.1330883123372,268.97797064599996) translate(-556.1330883123372,-268.97797064599996)"><path fill="black" stroke="none" paint-order="stroke fill markers" d=" M 541.4732904790039 261.6480717293333 L 556.1330883123372 268.97797064599996 L 541.4732904790039 276.3078695626666 Z"/></g></g><g><g><rect fill="white" stroke="none" x="603.839756484694" y="295.36560674599997" width="205.74987829421875" height="22.86928462"/></g><text fill="black" stroke="none" font-family="sans-serif" font-size="11pt" font-style="normal" font-weight="normal" text-decoration="normal" x="606.478520094694" y="311.198188406" text-anchor="start" dominant-baseline="alphabetic" xml:space="preserve">Request to validate credentials</text></g><g><path fill="none" stroke="black" paint-order="fill stroke markers" d=" M 556.1330883123372 318.23489136599994 L 854.3643433846029 318.23489136599994" stroke-miterlimit="10" stroke-width="1.4659797833333332" stroke-dasharray=""/><g transform="translate(857.2963029512696,318.23489136599994) translate(-857.2963029512696,-318.23489136599994)"><path fill="black" stroke="none" paint-order="stroke fill markers" d=" M 842.6365051179363 310.9049924493333 L 857.2963029512696 318.23489136599994 L 842.6365051179363 325.5647902826666 Z"/></g></g><g><g><rect fill="white" stroke="none" x="601.0015377957292" y="344.62252746599995" width="211.42631567214843" height="22.86928462"/></g><text fill="black" stroke="none" font-family="sans-serif" font-size="11pt" font-style="normal" font-weight="normal" text-decoration="normal" x="603.6403014057291" y="360.45510912599997" text-anchor="start" dominant-baseline="alphabetic" xml:space="preserve">(Boolean) Pass/Fail Credentials</text></g><g><path fill="none" stroke="black" paint-order="fill stroke markers" d=" M 857.2963029512696 367.4918120859999 L 559.0650478790039 367.4918120859999" stroke-miterlimit="10" stroke-width="1.4659797833333332" stroke-dasharray=""/><g transform="translate(556.1330883123372,367.4918120859999) translate(-556.1330883123372,-367.4918120859999)"><path fill="black" stroke="none" paint-order="stroke fill markers" d=" M 570.7928861456705 360.1619131693333 L 556.1330883123372 367.4918120859999 L 570.7928861456705 374.8217110026666 Z"/></g></g><g><g><rect fill="white" stroke="none" x="337.7445273804297" y="393.87944818599993" width="140.51725805496093" height="22.86928462"/></g><text fill="black" stroke="none" font-family="sans-serif" font-size="11pt" font-style="normal" font-weight="normal" text-decoration="normal" x="340.3832909904297" y="409.71202984599995" text-anchor="start" dominant-baseline="alphabetic" xml:space="preserve">Display Success/Fail</text></g><g><path fill="none" stroke="black" paint-order="fill stroke markers" d=" M 556.1330883123372 416.7487328059999 L 262.8051840701497 416.7487328059999" stroke-miterlimit="10" stroke-width="1.4659797833333332" stroke-dasharray=""/><g transform="translate(259.8732245034831,416.7487328059999) translate(-259.8732245034831,-416.7487328059999)"><path fill="black" stroke="none" paint-order="stroke fill markers" d=" M 274.53302233681643 409.41883388933326 L 259.8732245034831 416.7487328059999 L 274.53302233681643 424.07863172266656 Z"/></g></g><g><g><rect fill="white" stroke="none" x="43.87190874979818" y="443.1363689059999" width="195.18440283035156" height="22.86928462"/></g><text fill="black" stroke="none" font-family="sans-serif" font-size="11pt" font-style="normal" font-weight="normal" text-decoration="normal" x="46.51067235979818" y="458.96895056599993" text-anchor="start" dominant-baseline="alphabetic" xml:space="preserve">Login Fail/Succeed==login==</text></g><g><path fill="none" stroke="black" paint-order="fill stroke markers" d=" M 259.8732245034831 466.0056535259999 L 25.98695539313151 466.0056535259999" stroke-miterlimit="10" stroke-width="1.4659797833333332" stroke-dasharray=""/><g transform="translate(23.054995826464843,466.0056535259999) translate(-23.054995826464843,-466.0056535259999)"><path fill="black" stroke="none" paint-order="stroke fill markers" d=" M 37.714793659798175 458.67575460933324 L 23.054995826464843 466.0056535259999 L 37.714793659798175 473.33555244266654 Z"/></g></g><path fill="none" stroke="black" paint-order="fill stroke markers" d=" M 8.7958787 506.75989150266656 L 892.2041213 506.75989150266656 M 8.7958787 512.6238106359999 L 892.2041213 512.6238106359999 M 8.7958787 518.4877297693332 L 892.2041213 518.4877297693332" stroke-miterlimit="10" stroke-width="1.4659797833333332" stroke-dasharray=""/><path fill="white" stroke="black" paint-order="fill stroke markers" d=" M 401.4298968787695 492.3932896259999 L 499.57010312123043 492.3932896259999 L 499.57010312123043 532.8543316459999 L 401.4298968787695 532.8543316459999 Z" stroke-miterlimit="10" stroke-width="1.4659797833333332" stroke-dasharray=""/><g><text fill="black" stroke="none" font-family="sans-serif" font-size="11pt" font-style="normal" font-weight="normal" text-decoration="normal" x="426.05835723876953" y="517.0217499859999" text-anchor="start" dominant-baseline="alphabetic" xml:space="preserve">register</text></g><g><g><rect fill="white" stroke="none" x="89.12241991923177" y="559.2419677459999" width="104.68338049148437" height="22.86928462"/></g><text fill="black" stroke="none" font-family="sans-serif" font-size="11pt" font-style="normal" font-weight="normal" text-decoration="normal" x="91.76118352923177" y="575.0745494059998" text-anchor="start" dominant-baseline="alphabetic" xml:space="preserve">Opens ClosetU</text></g><g><path fill="none" stroke="black" paint-order="fill stroke markers" d=" M 23.054995826464843 582.1112523659999 L 256.9412649368164 582.1112523659999" stroke-miterlimit="10" stroke-width="1.4659797833333332" stroke-dasharray=""/><g transform="translate(259.8732245034831,582.1112523659999) translate(-259.8732245034831,-582.1112523659999)"><path fill="black" stroke="none" paint-order="stroke fill markers" d=" M 245.21342667014974 574.7813534493332 L 259.8732245034831 582.1112523659999 L 245.21342667014974 589.4411512826666 Z"/></g></g><g><g><rect fill="white" stroke="none" x="280.6901374268164" y="608.4988884659999" width="254.6260379621875" height="22.86928462"/></g><text fill="black" stroke="none" font-family="sans-serif" font-size="11pt" font-style="normal" font-weight="normal" text-decoration="normal" x="283.32890103681643" y="624.3314701259999" text-anchor="start" dominant-baseline="alphabetic" xml:space="preserve">Request to submit/validate information</text></g><g><path fill="none" stroke="black" paint-order="fill stroke markers" d=" M 259.8732245034831 631.368173086 L 553.2011287456705 631.368173086" stroke-miterlimit="10" stroke-width="1.4659797833333332" stroke-dasharray=""/><g transform="translate(556.1330883123372,631.368173086) translate(-556.1330883123372,-631.368173086)"><path fill="black" stroke="none" paint-order="stroke fill markers" d=" M 541.4732904790039 624.0382741693332 L 556.1330883123372 631.368173086 L 541.4732904790039 638.6980720026667 Z"/></g></g><g><g><rect fill="white" stroke="none" x="576.9500012356706" y="657.755809186" width="259.52938879226565" height="22.86928462"/></g><text fill="black" stroke="none" font-family="sans-serif" font-size="11pt" font-style="normal" font-weight="normal" text-decoration="normal" x="579.5887648456705" y="673.5883908459999" text-anchor="start" dominant-baseline="alphabetic" xml:space="preserve">Request to find existing user/store data</text></g><g><path fill="none" stroke="black" paint-order="fill stroke markers" d=" M 556.1330883123372 680.625093806 L 854.3643433846029 680.625093806" stroke-miterlimit="10" stroke-width="1.4659797833333332" stroke-dasharray=""/><g transform="translate(857.2963029512696,680.625093806) translate(-857.2963029512696,-680.625093806)"><path fill="black" stroke="none" paint-order="stroke fill markers" d=" M 842.6365051179363 673.2951948893333 L 857.2963029512696 680.625093806 L 842.6365051179363 687.9549927226667 Z"/></g></g><g><g><rect fill="white" stroke="none" x="619.3372616726823" y="707.012729906" width="174.75486791824218" height="22.86928462"/></g><text fill="black" stroke="none" font-family="sans-serif" font-size="11pt" font-style="normal" font-weight="normal" text-decoration="normal" x="621.9760252826823" y="722.845311566" text-anchor="start" dominant-baseline="alphabetic" xml:space="preserve">(Boolean) pass/fail criteria</text></g><g><path fill="none" stroke="black" paint-order="fill stroke markers" d=" M 857.2963029512696 729.882014526 L 559.0650478790039 729.882014526" stroke-miterlimit="10" stroke-width="1.4659797833333332" stroke-dasharray=""/><g transform="translate(556.1330883123372,729.882014526) translate(-556.1330883123372,-729.882014526)"><path fill="black" stroke="none" paint-order="stroke fill markers" d=" M 570.7928861456705 722.5521156093333 L 556.1330883123372 729.882014526 L 570.7928861456705 737.2119134426667 Z"/></g></g><g><g><rect fill="white" stroke="none" x="337.7445273804297" y="756.269650626" width="140.51725805496093" height="22.86928462"/></g><text fill="black" stroke="none" font-family="sans-serif" font-size="11pt" font-style="normal" font-weight="normal" text-decoration="normal" x="340.3832909904297" y="772.102232286" text-anchor="start" dominant-baseline="alphabetic" xml:space="preserve">Display Success/Fail</text></g><g><path fill="none" stroke="black" paint-order="fill stroke markers" d=" M 556.1330883123372 779.1389352460001 L 262.8051840701497 779.1389352460001" stroke-miterlimit="10" stroke-width="1.4659797833333332" stroke-dasharray=""/><g transform="translate(259.8732245034831,779.1389352460001) translate(-259.8732245034831,-779.1389352460001)"><path fill="black" stroke="none" paint-order="stroke fill markers" d=" M 274.53302233681643 771.8090363293334 L 259.8732245034831 779.1389352460001 L 274.53302233681643 786.4688341626668 Z"/></g></g><g><g><rect fill="white" stroke="none" x="67.12172564432943" y="805.5265713460001" width="148.68476904128906" height="22.86928462"/></g><text fill="black" stroke="none" font-family="sans-serif" font-size="11pt" font-style="normal" font-weight="normal" text-decoration="normal" x="69.76048925432943" y="821.359153006" text-anchor="start" dominant-baseline="alphabetic" xml:space="preserve">Register Fail/Succeed</text></g><g><path fill="none" stroke="black" paint-order="fill stroke markers" d=" M 259.8732245034831 828.3958559660001 L 25.98695539313151 828.3958559660001" stroke-miterlimit="10" stroke-width="1.4659797833333332" stroke-dasharray=""/><g transform="translate(23.054995826464843,828.3958559660001) translate(-23.054995826464843,-828.3958559660001)"><path fill="black" stroke="none" paint-order="stroke fill markers" d=" M 37.714793659798175 821.0659570493334 L 23.054995826464843 828.3958559660001 L 37.714793659798175 835.7257548826668 Z"/></g></g><path fill="none" stroke="black" paint-order="fill stroke markers" d=" M 8.7958787 869.1500939426669 L 892.2041213 869.1500939426669 M 8.7958787 875.0140130760002 L 892.2041213 875.0140130760002 M 8.7958787 880.8779322093335 L 892.2041213 880.8779322093335" stroke-miterlimit="10" stroke-width="1.4659797833333332" stroke-dasharray=""/><path fill="white" stroke="black" paint-order="fill stroke markers" d=" M 405.0948825355078 854.7834920660001 L 495.90511746449215 854.7834920660001 L 495.90511746449215 895.2445340860002 L 405.0948825355078 895.2445340860002 Z" stroke-miterlimit="10" stroke-width="1.4659797833333332" stroke-dasharray=""/><g><text fill="black" stroke="none" font-family="sans-serif" font-size="11pt" font-style="normal" font-weight="normal" text-decoration="normal" x="429.7233428955078" y="879.4119524260002" text-anchor="start" dominant-baseline="alphabetic" xml:space="preserve">Closet</text></g><g><g><rect fill="white" stroke="none" x="65.7437654392513" y="921.6321701860002" width="151.4406894514453" height="22.86928462"/></g><text fill="black" stroke="none" font-family="sans-serif" font-size="11pt" font-style="normal" font-weight="normal" text-decoration="normal" x="68.3825290492513" y="937.4647518460001" text-anchor="start" dominant-baseline="alphabetic" xml:space="preserve">Wants to upload photo</text></g><g><path fill="none" stroke="black" paint-order="fill stroke markers" d=" M 23.054995826464843 944.5014548060002 L 256.9412649368164 944.5014548060002" stroke-miterlimit="10" stroke-width="1.4659797833333332" stroke-dasharray=""/><g transform="translate(259.8732245034831,944.5014548060002) translate(-259.8732245034831,-944.5014548060002)"><path fill="black" stroke="none" paint-order="stroke fill markers" d=" M 245.21342667014974 937.1715558893335 L 259.8732245034831 944.5014548060002 L 245.21342667014974 951.8313537226669 Z"/></g></g><g><g><rect fill="white" stroke="none" x="331.2019248413672" y="970.8890909060002" width="153.60246313308593" height="22.86928462"/></g><text fill="black" stroke="none" font-family="sans-serif" font-size="11pt" font-style="normal" font-weight="normal" text-decoration="normal" x="333.8406884513672" y="986.7216725660002" text-anchor="start" dominant-baseline="alphabetic" xml:space="preserve">Request to store photo</text></g><g><path fill="none" stroke="black" paint-order="fill stroke markers" d=" M 259.8732245034831 993.7583755260002 L 553.2011287456705 993.7583755260002" stroke-miterlimit="10" stroke-width="1.4659797833333332" stroke-dasharray=""/><g transform="translate(556.1330883123372,993.7583755260002) translate(-556.1330883123372,-993.7583755260002)"><path fill="black" stroke="none" paint-order="stroke fill markers" d=" M 541.4732904790039 986.4284766093335 L 556.1330883123372 993.7583755260002 L 541.4732904790039 1001.088274442667 Z"/></g></g><g><g><rect fill="white" stroke="none" x="620.1246380764909" y="1020.1460116260001" width="173.180115110625" height="22.86928462"/></g><text fill="black" stroke="none" font-family="sans-serif" font-size="11pt" font-style="normal" font-weight="normal" text-decoration="normal" x="622.7634016864909" y="1035.978593286" text-anchor="start" dominant-baseline="alphabetic" xml:space="preserve">Store photo into database</text></g><g><path fill="none" stroke="black" paint-order="fill stroke markers" d=" M 556.1330883123372 1043.0152962460002 L 854.3643433846029 1043.0152962460002" stroke-miterlimit="10" stroke-width="1.4659797833333332" stroke-dasharray=""/><g transform="translate(857.2963029512696,1043.0152962460002) translate(-857.2963029512696,-1043.0152962460002)"><path fill="black" stroke="none" paint-order="stroke fill markers" d=" M 842.6365051179363 1035.6853973293335 L 857.2963029512696 1043.0152962460002 L 842.6365051179363 1050.3451951626669 Z"/></g></g><g><g><rect fill="white" stroke="none" x="632.3723263699479" y="1069.4029323460002" width="148.68473852371093" height="22.86928462"/></g><text fill="black" stroke="none" font-family="sans-serif" font-size="11pt" font-style="normal" font-weight="normal" text-decoration="normal" x="635.0110899799479" y="1085.2355140060001" text-anchor="start" dominant-baseline="alphabetic" xml:space="preserve">(Boolean) success/fail</text></g><g><path fill="none" stroke="black" paint-order="fill stroke markers" d=" M 857.2963029512696 1092.272216966 L 559.0650478790039 1092.272216966" stroke-miterlimit="10" stroke-width="1.4659797833333332" stroke-dasharray=""/><g transform="translate(556.1330883123372,1092.272216966) translate(-556.1330883123372,-1092.272216966)"><path fill="black" stroke="none" paint-order="stroke fill markers" d=" M 570.7928861456705 1084.9423180493334 L 556.1330883123372 1092.272216966 L 570.7928861456705 1099.6021158826668 Z"/></g></g><g><g><rect fill="white" stroke="none" x="337.7445273804297" y="1118.659853066" width="140.51725805496093" height="22.86928462"/></g><text fill="black" stroke="none" font-family="sans-serif" font-size="11pt" font-style="normal" font-weight="normal" text-decoration="normal" x="340.3832909904297" y="1134.492434726" text-anchor="start" dominant-baseline="alphabetic" xml:space="preserve">Display Success/Fail</text></g><g><path fill="none" stroke="black" paint-order="fill stroke markers" d=" M 556.1330883123372 1141.529137686 L 262.8051840701497 1141.529137686" stroke-miterlimit="10" stroke-width="1.4659797833333332" stroke-dasharray=""/><g transform="translate(259.8732245034831,1141.529137686) translate(-259.8732245034831,-1141.529137686)"><path fill="black" stroke="none" paint-order="stroke fill markers" d=" M 274.53302233681643 1134.1992387693333 L 259.8732245034831 1141.529137686 L 274.53302233681643 1148.8590366026667 Z"/></g></g><path fill="none" stroke="black" paint-order="fill stroke markers" d=" M 8.7958787 1182.2833756626665 L 892.2041213 1182.2833756626665 M 8.7958787 1188.1472947959999 L 892.2041213 1188.1472947959999 M 8.7958787 1194.0112139293333 L 892.2041213 1194.0112139293333" stroke-miterlimit="10" stroke-width="1.4659797833333332" stroke-dasharray=""/><path fill="white" stroke="black" paint-order="fill stroke markers" d=" M 387.98322634654295 1167.916773786 L 513.016773653457 1167.916773786 L 513.016773653457 1208.377815806 L 387.98322634654295 1208.377815806 Z" stroke-miterlimit="10" stroke-width="1.4659797833333332" stroke-dasharray=""/><g><text fill="black" stroke="none" font-family="sans-serif" font-size="11pt" font-style="normal" font-weight="normal" text-decoration="normal" x="412.61168670654297" y="1192.5452341459998" text-anchor="start" dominant-baseline="alphabetic" xml:space="preserve">Assembling</text></g><g><g><rect fill="white" stroke="none" x="299.841886084043" y="1234.765451906" width="216.32254064773437" height="22.86928462"/></g><text fill="black" stroke="none" font-family="sans-serif" font-size="11pt" font-style="normal" font-weight="normal" text-decoration="normal" x="302.480649694043" y="1250.598033566" text-anchor="start" dominant-baseline="alphabetic" xml:space="preserve">Request every photo from closet</text></g><g><path fill="none" stroke="black" paint-order="fill stroke markers" d=" M 259.8732245034831 1257.6347365259999 L 553.2011287456705 1257.6347365259999" stroke-miterlimit="10" stroke-width="1.4659797833333332" stroke-dasharray=""/><g transform="translate(556.1330883123372,1257.6347365259999) translate(-556.1330883123372,-1257.6347365259999)"><path fill="black" stroke="none" paint-order="stroke fill markers" d=" M 541.4732904790039 1250.3048376093332 L 556.1330883123372 1257.6347365259999 L 541.4732904790039 1264.9646354426666 Z"/></g></g><g><g><rect fill="white" stroke="none" x="601.8068203885026" y="1284.0223726259999" width="209.81575048660156" height="22.86928462"/></g><text fill="black" stroke="none" font-family="sans-serif" font-size="11pt" font-style="normal" font-weight="normal" text-decoration="normal" x="604.4455839985026" y="1299.8549542859998" text-anchor="start" dominant-baseline="alphabetic" xml:space="preserve">Retrieve photos/their meta data</text></g><g><path fill="none" stroke="black" paint-order="fill stroke markers" d=" M 556.1330883123372 1306.8916572459998 L 854.3643433846029 1306.8916572459998" stroke-miterlimit="10" stroke-width="1.4659797833333332" stroke-dasharray=""/><g transform="translate(857.2963029512696,1306.8916572459998) translate(-857.2963029512696,-1306.8916572459998)"><path fill="black" stroke="none" paint-order="stroke fill markers" d=" M 842.6365051179363 1299.561758329333 L 857.2963029512696 1306.8916572459998 L 842.6365051179363 1314.2215561626665 Z"/></g></g><g><g><rect fill="white" stroke="none" x="704.0759320218034" y="1333.2792933459998" width="5.27752722" height="22.86928462"/></g><text fill="black" stroke="none" font-family="sans-serif" font-size="11pt" font-style="normal" font-weight="normal" text-decoration="normal" x="706.7146956318034" y="1349.1118750059998" text-anchor="start" dominant-baseline="alphabetic" xml:space="preserve"></text></g><g><path fill="none" stroke="black" paint-order="fill stroke markers" d=" M 857.2963029512696 1356.1485779659997 L 559.0650478790039 1356.1485779659997" stroke-miterlimit="10" stroke-width="1.4659797833333332" stroke-dasharray=""/><g transform="translate(556.1330883123372,1356.1485779659997) translate(-556.1330883123372,-1356.1485779659997)"><path fill="black" stroke="none" paint-order="stroke fill markers" d=" M 570.7928861456705 1348.818679049333 L 556.1330883123372 1356.1485779659997 L 570.7928861456705 1363.4784768826664 Z"/></g></g><g><g><rect fill="white" stroke="none" x="290.8690925049414" y="1382.5362140659997" width="234.2681278059375" height="22.86928462"/></g><text fill="black" stroke="none" font-family="sans-serif" font-size="11pt" font-style="normal" font-weight="normal" text-decoration="normal" x="293.50785611494143" y="1398.3687957259997" text-anchor="start" dominant-baseline="alphabetic" xml:space="preserve">Render photos in assembing closet</text></g><g><path fill="none" stroke="black" paint-order="fill stroke markers" d=" M 556.1330883123372 1405.4054986859996 L 262.8051840701497 1405.4054986859996" stroke-miterlimit="10" stroke-width="1.4659797833333332" stroke-dasharray=""/><g transform="translate(259.8732245034831,1405.4054986859996) translate(-259.8732245034831,-1405.4054986859996)"><path fill="black" stroke="none" paint-order="stroke fill markers" d=" M 274.53302233681643 1398.075599769333 L 259.8732245034831 1405.4054986859996 L 274.53302233681643 1412.7353976026664 Z"/></g></g><g><g><rect fill="white" stroke="none" x="334.4660621094336" y="1431.7931347859997" width="147.07418859695312" height="22.86928462"/></g><text fill="black" stroke="none" font-family="sans-serif" font-size="11pt" font-style="normal" font-weight="normal" text-decoration="normal" x="337.1048257194336" y="1447.6257164459996" text-anchor="start" dominant-baseline="alphabetic" xml:space="preserve">Request to save outfit</text></g><g><path fill="none" stroke="black" paint-order="fill stroke markers" d=" M 259.8732245034831 1454.6624194059996 L 553.2011287456705 1454.6624194059996" stroke-miterlimit="10" stroke-width="1.4659797833333332" stroke-dasharray=""/><g transform="translate(556.1330883123372,1454.6624194059996) translate(-556.1330883123372,-1454.6624194059996)"><path fill="black" stroke="none" paint-order="stroke fill markers" d=" M 541.4732904790039 1447.3325204893329 L 556.1330883123372 1454.6624194059996 L 541.4732904790039 1461.9923183226663 Z"/></g></g><g><g><rect fill="white" stroke="none" x="630.7366681057878" y="1481.0500555059996" width="151.95605505203125" height="22.86928462"/></g><text fill="black" stroke="none" font-family="sans-serif" font-size="11pt" font-style="normal" font-weight="normal" text-decoration="normal" x="633.3754317157877" y="1496.8826371659995" text-anchor="start" dominant-baseline="alphabetic" xml:space="preserve">Save outfit (just photo)</text></g><g><path fill="none" stroke="black" paint-order="fill stroke markers" d=" M 556.1330883123372 1503.9193401259995 L 854.3643433846029 1503.9193401259995" stroke-miterlimit="10" stroke-width="1.4659797833333332" stroke-dasharray=""/><g transform="translate(857.2963029512696,1503.9193401259995) translate(-857.2963029512696,-1503.9193401259995)"><path fill="black" stroke="none" paint-order="stroke fill markers" d=" M 842.6365051179363 1496.5894412093328 L 857.2963029512696 1503.9193401259995 L 842.6365051179363 1511.2492390426662 Z"/></g></g><g><g><rect fill="white" stroke="none" x="620.5612988430925" y="1530.3069762259995" width="172.30679357742187" height="22.86928462"/></g><text fill="black" stroke="none" font-family="sans-serif" font-size="11pt" font-style="normal" font-weight="normal" text-decoration="normal" x="623.2000624530924" y="1546.1395578859995" text-anchor="start" dominant-baseline="alphabetic" xml:space="preserve">Success/Fail storing outfit</text></g><g><path fill="none" stroke="black" paint-order="fill stroke markers" d=" M 857.2963029512696 1553.1762608459994 L 559.0650478790039 1553.1762608459994" stroke-miterlimit="10" stroke-width="1.4659797833333332" stroke-dasharray=""/><g transform="translate(556.1330883123372,1553.1762608459994) translate(-556.1330883123372,-1553.1762608459994)"><path fill="black" stroke="none" paint-order="stroke fill markers" d=" M 570.7928861456705 1545.8463619293327 L 556.1330883123372 1553.1762608459994 L 570.7928861456705 1560.5061597626661 Z"/></g></g><g><g><rect fill="white" stroke="none" x="341.40952829595705" y="1579.5638969459994" width="133.18725622390625" height="22.86928462"/></g><text fill="black" stroke="none" font-family="sans-serif" font-size="11pt" font-style="normal" font-weight="normal" text-decoration="normal" x="344.04829190595706" y="1595.3964786059994" text-anchor="start" dominant-baseline="alphabetic" xml:space="preserve">Display success fail</text></g><g><path fill="none" stroke="black" paint-order="fill stroke markers" d=" M 556.1330883123372 1602.4331815659993 L 262.8051840701497 1602.4331815659993" stroke-miterlimit="10" stroke-width="1.4659797833333332" stroke-dasharray=""/><g transform="translate(259.8732245034831,1602.4331815659993) translate(-259.8732245034831,-1602.4331815659993)"><path fill="black" stroke="none" paint-order="stroke fill markers" d=" M 274.53302233681643 1595.1032826493326 L 259.8732245034831 1602.4331815659993 L 274.53302233681643 1609.763080482666 Z"/></g></g></g><g/><g/><g/><g/></g></svg>